<svg xmlns="http://www.w3.org/2000/svg" viewBox="0 0 93.18 109.95"><defs><style>.cls-1{fill:#ffed00;}.cls-1,.cls-2,.cls-3,.cls-4{stroke:#1d1d1b;stroke-miterlimit:10;}.cls-2{fill:#e33339;}.cls-3{fill:none;}.cls-4{fill:#1d1d1b;}</style></defs><g id="Laag_2" data-name="Laag 2"><g id="Laag_1-2" data-name="Laag 1"><g id="Laag_2-2" data-name="Laag 2"><g id="Laag_1-2-2" data-name="Laag 1-2"><polyline class="cls-1" points="77.52 12.29 80.47 6.27 85.92 7.75 78.92 41.35 66.69 42.89"/><polyline class="cls-1" points="71.98 9.92 72.74 1.55 79.67 2.18 76.72 43.35 64.39 42.23"/><polyline class="cls-1" points="67.45 10.16 72.22 10.16 74.27 46.11 67.9 46.11"/><polyline class="cls-1" points="59.91 46.4 67.97 45.27 68.76 4.42 63.52 4.42 62.61 12.29"/><polyline class="cls-1" points="60.39 12.41 64.53 10.93 61.92 49.4 52.96 49.4"/><polyline class="cls-1" points="52.96 11.7 53.83 2.38 61.27 2.83 56.22 53.89"/><polyline class="cls-1" points="49.2 17.43 49.78 11.61 56.11 12.23 55.35 48.73 47.62 47.28"/><polyline class="cls-1" points="42.9 16.61 42.9 10.03 48.69 10.03 52.33 55.33 45.06 52.37"/><polyline class="cls-1" points="37.66 16.73 43.77 16.73 47.17 54.29 38.09 51.8"/><polyline class="cls-1" points="32.33 10.42 39.81 10.03 40.85 47.55 23.83 48.38"/><polyline class="cls-1" points="24.15 9.47 31.85 8.9 36.7 45.03 26.84 45.76"/><polyline class="cls-1" points="21.51 3.31 28.76 4.14 27.98 42.64 18.52 43.07"/><polyline class="cls-1" points="14.34 6.7 13.75 0.5 21.48 0.5 24.92 42.89 16.67 42.89"/><polygon class="cls-1" points="11.33 26.98 8.09 6.27 16.07 6.27 18.99 38.22 10.75 38.22 11.33 26.98"/><polyline class="cls-1" points="7.66 36.45 0.62 14.22 7.66 11.61 14.93 36.45"/><polyline class="cls-1" points="74.27 39.08 86.53 11.61 92.54 14.45 82.1 41.35"/><path class="cls-2" d="M4.48,36.47l9.12,73H77.06l13.69-73H75.41s-7.88,7.89-27.79,8.71-31.11-8.71-31.11-8.71Z"/><path class="cls-3" d="M33.46,95.29s14.48-15.4,31.85-9.56"/><circle class="cls-4" cx="30.42" cy="62.23" r="6.91"/><circle class="cls-4" cx="61.27" cy="62.23" r="6.91"/></g></g></g></g></svg>