<svg xmlns="http://www.w3.org/2000/svg" viewBox="0 0 186.52 220.59"><defs><style>.cls-1{fill:#ffed00;}.cls-1,.cls-2,.cls-3,.cls-4,.cls-5{stroke:#1d1d1b;stroke-miterlimit:10;}.cls-2{fill:#e33339;}.cls-3{fill:#be1622;}.cls-4{fill:#e43339;}.cls-5{fill:#fff;}</style></defs><g id="Laag_2" data-name="Laag 2"><g id="Laag_1-2" data-name="Laag 1"><polyline class="cls-1" points="155.61 24.26 161.56 12.13 172.54 15.11 158.43 82.84 133.79 85.94"/><polyline class="cls-1" points="144.44 19.49 145.98 2.61 159.95 3.89 153.99 86.87 129.15 84.61"/><polyline class="cls-1" points="135.32 19.97 144.93 19.97 149.05 92.43 136.23 92.43"/><polyline class="cls-1" points="120.11 93.01 136.36 90.73 137.96 8.41 127.39 8.41 125.56 24.26"/><polyline class="cls-1" points="121.08 24.5 129.44 21.53 124.18 99.06 106.11 99.06"/><polyline class="cls-1" points="106.11 23.07 107.86 4.29 122.85 5.2 112.69 108.11"/><polyline class="cls-1" points="98.54 34.63 99.7 22.89 112.46 24.15 110.92 97.71 95.34 94.79"/><polyline class="cls-1" points="85.84 32.97 85.84 19.7 97.51 19.7 104.84 111 90.19 105.05"/><polyline class="cls-1" points="75.27 33.22 87.59 33.22 94.45 108.92 76.15 103.89"/><polyline class="cls-1" points="64.52 20.49 79.6 19.7 81.71 95.32 47.4 97.01"/><polyline class="cls-1" points="48.05 18.58 63.56 17.43 73.33 90.26 53.47 91.73"/><polyline class="cls-1" points="42.73 6.17 57.33 7.84 55.77 85.43 36.7 86.3"/><polyline class="cls-1" points="28.28 12.99 27.09 0.5 42.66 0.5 49.59 85.94 32.96 85.94"/><polygon class="cls-1" points="22.21 53.87 15.68 12.13 31.75 12.13 37.65 76.52 21.04 76.52 22.21 53.87"/><polyline class="cls-1" points="14.81 72.96 0.62 28.15 14.81 22.89 29.45 72.96"/><polyline class="cls-1" points="149.05 78.26 173.76 22.89 185.89 28.61 164.84 82.84"/><path class="cls-2" d="M8.4,73,26.79,220.09h127.9L182.28,73H151.35s-15.88,15.89-56,17.56S32.64,73,32.64,73Z"/><path class="cls-3" d="M57,110s15.78-16.62,27.14,0S57,150,57,150"/><path class="cls-3" d="M57.68,110S41.91,93.4,30.55,110s27.13,40,27.13,40"/><path class="cls-3" d="M130.72,110s15.78-16.62,27.14,0-27.14,40-27.14,40"/><path class="cls-3" d="M131.42,110s-15.78-16.62-27.14,0,27.14,40,27.14,40"/><path class="cls-4" d="M59.48,177.33s33.33,7.21,58.3-18.68L115,199.47s-32.94,11.07-55.55,0Z"/><path class="cls-5" d="M59.48,185.62s33.26,6.92,57.32-14.52l1-12.45s-21.21,23.29-58.3,18.68Z"/></g></g></svg>