<svg xmlns="http://www.w3.org/2000/svg" viewBox="0 0 77.52 91.39"><defs><style>.cls-1{fill:#ffed00;}.cls-1,.cls-2,.cls-3,.cls-4,.cls-5{stroke:#1d1d1b;stroke-miterlimit:10;}.cls-2{fill:#e33339;}.cls-3{fill:#be1622;}.cls-4{fill:#e43339;}.cls-5{fill:#fff;}</style></defs><g id="Laag_2" data-name="Laag 2"><g id="Laag_1-2" data-name="Laag 1"><g id="Laag_2-2" data-name="Laag 2"><g id="Laag_1-2-2" data-name="Laag 1-2"><g id="Laag_2-2-2" data-name="Laag 2-2"><g id="Laag_1-2-2-2" data-name="Laag 1-2-2"><polyline class="cls-1" points="64.42 10.28 66.87 5.29 71.39 6.51 65.58 34.39 55.44 35.67"/><polyline class="cls-1" points="59.82 8.32 60.46 1.37 66.2 1.9 63.75 36.05 53.52 35.12"/><polyline class="cls-1" points="56.07 8.51 60.02 8.51 61.72 38.34 56.44 38.34"/><polyline class="cls-1" points="49.8 38.58 56.5 37.64 57.15 3.76 52.8 3.76 52.05 10.28"/><polyline class="cls-1" points="50.21 10.38 53.65 9.16 51.48 41.07 44.04 41.07"/><polyline class="cls-1" points="44.04 9.79 44.76 2.06 50.93 2.43 46.75 44.79"/><polyline class="cls-1" points="40.93 14.55 41.4 9.71 46.66 10.23 46.02 40.51 39.61 39.31"/><polyline class="cls-1" points="35.7 13.86 35.7 8.4 40.51 8.4 43.52 45.98 37.49 43.53"/><polyline class="cls-1" points="31.35 13.97 36.42 13.97 39.24 45.13 31.71 43.06"/><polyline class="cls-1" points="26.92 8.73 33.13 8.4 34 39.53 19.88 40.23"/><polyline class="cls-1" points="20.14 7.94 26.53 7.47 30.55 37.45 22.37 38.05"/><polyline class="cls-1" points="17.96 2.83 23.96 3.52 23.32 35.46 15.47 35.82"/><polyline class="cls-1" points="12 5.64 11.52 0.5 17.93 0.5 20.78 35.67 13.93 35.67"/><polygon class="cls-1" points="9.51 22.47 6.82 5.29 13.44 5.29 15.86 31.79 9.03 31.79 9.51 22.47"/><polyline class="cls-1" points="6.46 30.32 0.62 11.88 6.46 9.71 12.49 30.32"/><polyline class="cls-1" points="61.72 32.51 71.89 9.71 76.88 12.07 68.22 34.39"/><path class="cls-2" d="M3.83,30.34l7.56,60.55H64L75.39,30.34H62.65s-6.52,6.54-23,7.23S13.8,30.34,13.8,30.34Z"/><path class="cls-3" d="M23.83,45.57s6.49-6.87,11.17,0S23.83,62,23.83,62"/><path class="cls-3" d="M24.11,45.57s-6.49-6.83-11.17,0S24.11,62,24.11,62"/><path class="cls-3" d="M54.17,45.57s6.5-6.87,11.17,0S54.17,62,54.17,62"/><path class="cls-3" d="M54.46,45.57s-6.5-6.87-11.17,0S54.46,62,54.46,62"/><path class="cls-4" d="M24.88,73.29s13.73,3,24-7.69L47.73,82.4S34.17,87,24.86,82.4Z"/><path class="cls-5" d="M24.88,76.7s13.69,2.86,23.59-6l.41-5.15a28.79,28.79,0,0,1-24,7.72Z"/></g></g></g></g></g></g></svg>